<?xml version="1.0" encoding="utf-8"?>
<!-- Generator: Adobe Illustrator 16.0.0, SVG Export Plug-In . SVG Version: 6.00 Build 0)  -->
<!DOCTYPE svg PUBLIC "-//W3C//DTD SVG 1.1//EN" "http://www.w3.org/Graphics/SVG/1.1/DTD/svg11.dtd">
<svg version="1.1" id="Layer_1" xmlns="http://www.w3.org/2000/svg" xmlns:xlink="http://www.w3.org/1999/xlink" x="0px" y="0px"
	 width="42px" height="42px" viewBox="0 0 42 42" enable-background="new 0 0 42 42" xml:space="preserve">
<g>
	<path fill="#F89640" d="M21,1.015L21,1.015c-8.837,0-16,7.163-16,16v23.971h32V17.015C37,8.178,29.838,1.015,21,1.015"/>
	<path fill="#FFFFFF" d="M35.432,38.985H20.804V24.358h14.627V38.985z M21.197,38.593h13.842V24.751H21.197V38.593z"/>
	<g>
		<path fill="#FFFFFF" d="M35.432,24.76H6.569v-7.314C6.569,9.488,13.043,3.015,21,3.015c7.957,0,14.431,6.474,14.431,14.431V24.76z
			 M6.961,24.367h28.078v-6.921c0-7.741-6.297-14.039-14.039-14.039c-7.741,0-14.039,6.298-14.039,14.039V24.367z"/>
		<rect x="20.804" y="3.211" fill="#FFFFFF" width="0.393" height="21.353"/>
		<path fill="#FFFFFF" d="M21.199,38.985H6.572V24.358h14.627V38.985z M6.965,38.593h13.842V24.751H6.965V38.593z"/>
		<path fill="#FFFFFF" d="M13.899,37.269c-3.086,0-5.597-2.51-5.597-5.597c0-3.085,2.511-5.596,5.597-5.596
			c3.085,0,5.596,2.511,5.596,5.596C19.495,34.759,16.985,37.269,13.899,37.269 M13.899,26.469c-2.87,0-5.204,2.335-5.204,5.203
			c0,2.87,2.334,5.204,5.204,5.204c2.869,0,5.203-2.334,5.203-5.204C19.103,28.804,16.769,26.469,13.899,26.469"/>
		<path fill="#FFFFFF" d="M33.547,37.146H22.564V26.163h10.982V37.146z M22.957,36.754h10.197V26.556H22.957V36.754z"/>
		<path fill="#FFFFFF" d="M33.548,23.079H22.604V5.027l0.23,0.002c6.107,0.887,10.714,6.235,10.714,12.439V23.079z M22.996,22.687
			h10.158v-5.217c0-5.936-4.352-11.063-10.158-12.018V22.687z"/>
		<path fill="#FFFFFF" d="M13.975,35.555c-2.132,0-3.867-1.735-3.867-3.867c0-2.134,1.735-3.868,3.867-3.868
			c2.133,0,3.868,1.734,3.868,3.868C17.843,33.819,16.108,35.555,13.975,35.555 M13.975,28.212c-1.916,0-3.475,1.56-3.475,3.476
			s1.56,3.475,3.475,3.475c1.917,0,3.475-1.559,3.475-3.475S15.892,28.212,13.975,28.212"/>
		<path fill="#FFFFFF" d="M31.897,35.496h-7.683v-7.683h7.683V35.496z M24.608,35.104h6.896v-6.896h-6.896V35.104z"/>
		<path fill="#FFFFFF" d="M12.321,22.882h-0.392c0-1.833-1.493-3.325-3.327-3.325v-0.394C10.653,19.163,12.321,20.832,12.321,22.882
			"/>
		<path fill="#FFFFFF" d="M14.082,22.882h-0.393v-0.068c0-2.792-2.272-5.064-5.064-5.064v-0.393c3.009,0,5.457,2.448,5.457,5.457
			V22.882z"/>
		<path fill="#FFFFFF" d="M15.889,22.882h-0.393c0-3.788-3.083-6.871-6.872-6.871H8.602v-0.394h0.023
			C12.63,15.618,15.889,18.877,15.889,22.882"/>
		<path fill="#FFFFFF" d="M17.627,22.882h-0.392V22.86c0-4.58-3.577-8.366-8.145-8.62l0.022-0.392
			c4.775,0.266,8.515,4.224,8.515,9.012V22.882z"/>
		<path fill="#FFFFFF" d="M19.389,22.86h-0.392v-0.023c0-5.319-3.983-9.752-9.264-10.313l0.042-0.391
			c5.481,0.582,9.614,5.184,9.614,10.704V22.86z"/>
		<path fill="#FFFFFF" d="M19.412,23.079H8.467v-5.61c0-6.204,4.605-11.552,10.714-12.439l0.034-0.002h0.197V23.079z M8.859,22.687
			h10.16V5.452c-5.807,0.955-10.16,6.082-10.16,12.018V22.687z"/>
		<path fill="#FFFFFF" d="M11.754,12.852l-0.349-0.18c1.542-2.986,4.431-5.126,7.726-5.723l0.07,0.386
			C16.025,7.911,13.242,9.973,11.754,12.852"/>
		<path fill="#FFFFFF" d="M13.546,13.512l-0.345-0.187c1.23-2.271,3.374-3.905,5.879-4.486l0.088,0.383
			C16.773,9.777,14.723,11.341,13.546,13.512"/>
		<path fill="#FFFFFF" d="M14.955,14.316l-0.347-0.184c0.956-1.804,2.632-3.134,4.601-3.649l0.1,0.38
			C17.447,11.351,15.86,12.609,14.955,14.316"/>
		<path fill="#FFFFFF" d="M16.42,15.604l-0.364-0.148c0.565-1.387,1.692-2.487,3.092-3.018l0.14,0.367
			C17.99,13.297,16.944,14.317,16.42,15.604"/>
		<path fill="#FFFFFF" d="M13.975,33.591c-1.066,0-1.933-0.866-1.933-1.932c0-1.064,0.867-1.932,1.933-1.932
			c1.064,0,1.93,0.867,1.93,1.932C15.905,32.725,15.039,33.591,13.975,33.591 M13.975,30.12c-0.85,0-1.539,0.691-1.539,1.539
			c0,0.849,0.689,1.539,1.539,1.539c0.848,0,1.538-0.69,1.538-1.539C15.512,30.812,14.823,30.12,13.975,30.12"/>
		<path fill="#FFFFFF" d="M29.949,33.54h-3.893v-3.893h3.893V33.54z M26.449,33.147h3.107V30.04h-3.107V33.147z"/>
		<polygon fill="#FFFFFF" points="23.565,22.981 23.287,22.704 24.864,21.127 23.098,19.36 24.864,17.593 23.131,15.86 
			24.916,14.076 23.114,12.275 24.864,10.525 23.063,8.723 24.956,6.831 23.686,5.561 23.964,5.283 25.512,6.831 23.619,8.723 
			25.42,10.525 23.67,12.275 25.471,14.076 23.688,15.86 25.42,17.593 23.652,19.36 25.42,21.127 		"/>
		<polygon fill="#FFFFFF" points="26.104,22.981 25.826,22.704 27.403,21.127 25.637,19.36 27.403,17.593 25.67,15.86 
			27.455,14.076 25.653,12.275 27.403,10.525 25.602,8.723 27.458,6.867 27.736,7.146 26.157,8.723 27.959,10.525 26.209,12.275 
			28.01,14.076 26.226,15.86 27.959,17.593 26.191,19.36 27.959,21.127 		"/>
		<polygon fill="#FFFFFF" points="28.643,22.981 28.365,22.704 29.942,21.127 28.176,19.36 29.942,17.593 28.21,15.86 
			29.994,14.076 28.192,12.275 29.942,10.525 28.141,8.723 28.964,7.9 29.242,8.178 28.696,8.723 30.498,10.525 28.748,12.275 
			30.549,14.076 28.765,15.86 30.498,17.593 28.73,19.36 30.498,21.127 		"/>
		<polygon fill="#FFFFFF" points="31.182,22.981 30.904,22.704 32.481,21.127 30.715,19.36 32.481,17.593 30.749,15.86 
			32.533,14.076 30.731,12.275 31.749,11.257 32.027,11.535 31.287,12.275 33.088,14.076 31.305,15.86 33.037,17.593 31.27,19.36 
			33.037,21.127 		"/>
	</g>
</g>
</svg>
