<svg width="28" height="29" viewBox="0 0 28 29" fill="none" xmlns="http://www.w3.org/2000/svg">
<path d="M11.526 18.9063C7.74479 18.9063 4.67708 15.8542 4.67708 12.0521C4.67708 8.26562 7.73958 5.19792 11.526 5.19792C15.3125 5.19792 18.3802 8.26562 18.3802 12.0521C18.3802 15.8385 15.3177 18.9063 11.526 18.9063ZM27.4323 24.625L22.0885 19.2813C21.849 19.0417 21.526 18.9063 21.1823 18.9063H20.3073C21.7865 17.026 22.6615 14.6406 22.6615 12.0521C22.6615 5.90625 17.6771 0.921875 11.526 0.921875C5.375 0.921875 0.390625 5.90625 0.390625 12.0521C0.390625 18.2135 5.375 23.1979 11.526 23.1979C14.1146 23.1979 16.4948 22.3177 18.3802 20.8385V21.7083C18.3802 22.0521 18.5156 22.3854 18.7552 22.625L24.0938 27.9583C24.599 28.4688 25.4115 28.4688 25.9115 27.9583L27.4219 26.4375C27.9271 25.9479 27.9271 25.1354 27.4323 24.625Z" fill="white"/>
</svg>
